<mxfile host="app.diagrams.net" modified="2022-12-07T04:58:12.288Z" agent="5.0 (Macintosh; Intel Mac OS X 10_15_7) AppleWebKit/537.36 (KHTML, like Gecko) Chrome/107.0.0.0 Safari/537.36" version="20.6.0" etag="wI209z9sqWJoHoPzAnFr" type="github">
  <diagram id="v7eeTHHpuFF_YE2ijG5b" name="第 1 页">
    <mxGraphModel dx="1017" dy="798" grid="1" gridSize="10" guides="1" tooltips="1" connect="1" arrows="1" fold="1" page="1" pageScale="1" pageWidth="827" pageHeight="1169" math="0" shadow="0">
      <root>
        <mxCell id="0" />
        <mxCell id="1" parent="0" />
        <mxCell id="jfVQ7FKm_RnfWO_aGGS6-1" value="" style="rounded=0;whiteSpace=wrap;html=1;dashed=1;strokeWidth=2;fillColor=none;" vertex="1" parent="1">
          <mxGeometry x="160" y="180" width="530" height="230" as="geometry" />
        </mxCell>
        <mxCell id="jfVQ7FKm_RnfWO_aGGS6-2" value="&lt;b&gt;&lt;font style=&quot;font-size: 18px;&quot;&gt;Method Area&lt;/font&gt;&lt;/b&gt;" style="rounded=1;whiteSpace=wrap;html=1;strokeWidth=2;fillColor=#f8cecc;strokeColor=#b85450;" vertex="1" parent="1">
          <mxGeometry x="200" y="210" width="130" height="60" as="geometry" />
        </mxCell>
        <mxCell id="jfVQ7FKm_RnfWO_aGGS6-3" value="&lt;b&gt;&lt;font style=&quot;font-size: 18px;&quot;&gt;Heap Area&lt;/font&gt;&lt;/b&gt;" style="rounded=1;whiteSpace=wrap;html=1;strokeWidth=2;fillColor=#f8cecc;strokeColor=#b85450;" vertex="1" parent="1">
          <mxGeometry x="200" y="320" width="130" height="60" as="geometry" />
        </mxCell>
        <mxCell id="jfVQ7FKm_RnfWO_aGGS6-4" value="&lt;b&gt;Java Stack&lt;/b&gt;" style="rounded=1;whiteSpace=wrap;html=1;strokeWidth=2;fontSize=18;fillColor=#f5f5f5;strokeColor=#666666;fontColor=#333333;" vertex="1" parent="1">
          <mxGeometry x="370" y="210" width="300" height="60" as="geometry" />
        </mxCell>
        <mxCell id="jfVQ7FKm_RnfWO_aGGS6-5" value="&lt;b&gt;Program Counter&lt;/b&gt;" style="rounded=1;whiteSpace=wrap;html=1;strokeWidth=2;fontSize=18;fillColor=#f5f5f5;fontColor=#333333;strokeColor=#666666;" vertex="1" parent="1">
          <mxGeometry x="370" y="320" width="300" height="60" as="geometry" />
        </mxCell>
        <mxCell id="jfVQ7FKm_RnfWO_aGGS6-6" value="&lt;b&gt;&lt;font style=&quot;font-size: 28px;&quot;&gt;Engine&lt;/font&gt;&lt;/b&gt;" style="rounded=1;whiteSpace=wrap;html=1;strokeWidth=2;fontSize=18;fillColor=#f5f5f5;strokeColor=#666666;fontColor=#333333;" vertex="1" parent="1">
          <mxGeometry x="160" y="443" width="530" height="60" as="geometry" />
        </mxCell>
        <mxCell id="jfVQ7FKm_RnfWO_aGGS6-7" value="&lt;span style=&quot;font-size: 28px;&quot;&gt;&lt;b&gt;Class Loader&lt;/b&gt;&lt;/span&gt;" style="rounded=1;whiteSpace=wrap;html=1;strokeWidth=2;fontSize=18;fillColor=#f5f5f5;strokeColor=#666666;fontColor=#333333;" vertex="1" parent="1">
          <mxGeometry x="160" y="90" width="530" height="60" as="geometry" />
        </mxCell>
      </root>
    </mxGraphModel>
  </diagram>
</mxfile>
